# xmcd CD database file
#
# Track frame offsets:
#	225
#	13790
#	34277
#	45845
#	57245
#	68099
#	80034
#	91923
#	106297
#	118301
#	132755
#	146523
#	160886
#	170077
#	185798
#	199138
#	213825
#	226233
#	241727
#	257389
#	272442
#
# Disc length: 3786 seconds
#
# Revision: 2
# Processed by: cddbd v1.4PL0 Copyright (c) Steve Scherf et al.
# Submitted via: CDex 1.50beta10
#
DISCID=220ec715
DTITLE=Floyd Cramer - Floyd Cramer
DYEAR=2000
DGENRE=Country
TTITLE0=Chattanooga Choo Choo
TTITLE1=Hank Williams Medley
TTITLE2=Blue Eyes Cryin' In The Rain
TTITLE3=The Homecoming
TTITLE4=Danny Boy
TTITLE5=Root Beer Rag
TTITLE6=There Goes My Everything
TTITLE7=Morning Has Broken
TTITLE8=Green Green Grass Of Home
TTITLE9=I Can't Stop loving You
TTITLE10=The Twelfth Of Never
TTITLE11=Help Me Make It Through The Night
TTITLE12=On The Rebound
TTITLE13=Always On My Mind
TTITLE14=Love Me Tender
TTITLE15=Almost Like A Song
TTITLE16=Time In A Bottle
TTITLE17=You Needed Me
TTITLE18=Faded Love
TTITLE19=For The Good Times
TTITLE20=Last Date
EXTD=YEAR: 2000
EXTT0=
EXTT1=
EXTT2=
EXTT3=
EXTT4=
EXTT5=
EXTT6=
EXTT7=
EXTT8=
EXTT9=
EXTT10=
EXTT11=
EXTT12=
EXTT13=
EXTT14=
EXTT15=
EXTT16=
EXTT17=
EXTT18=
EXTT19=
EXTT20=
PLAYORDER=
